<?xml version="1.0" encoding="UTF-8"?>
<svg id="Layer_2" data-name="Layer 2" xmlns="http://www.w3.org/2000/svg" version="1.1" viewBox="0 0 24 24">
  <defs>
    <style>
      .cls-1 {
        fill: #000;
      }

      .cls-1, .cls-2, .cls-3 {
        stroke-width: 0px;
      }

      .cls-2 {
        fill: #0072ff;
      }

      .cls-3 {
        fill: #fff;
      }
    </style>
  </defs>
  <rect class="cls-1" x="2.2" y="4.1" width="19.7" height="15.8" rx="2.1" ry="2.1"/>
  <g>
    <circle class="cls-3" cx="12" cy="12" r="4.1"/>
    <circle class="cls-2" cx="12" cy="12" r="3.1"/>
    <circle class="cls-1" cx="12" cy="12" r="2.2"/>
  </g>
  <g>
    <g>
      <path class="cls-1" d="M5.1,17.1c-.3,0-.7-.1-1-.4L.4,13c-.5-.5-.5-1.4,0-1.9l3.7-3.7c.5-.5,1.4-.5,1.9,0l.8.8c.5.5.5,1.4,0,1.9l-1.9,1.9,1.9,1.9c.3.3.4.6.4,1s-.1.7-.4,1l-.8.8c-.3.3-.6.4-1,.4ZM1.9,12l3.2,3.2.3-.3-2.9-2.9,2.9-2.9-.3-.3-3.2,3.2Z"/>
      <path class="cls-2" d="M3.7,12l2.5-2.5c.2-.2.2-.5,0-.7l-.8-.8c-.2-.2-.5-.2-.7,0l-2.9,2.9-.8.8c-.2.2-.2.5,0,.7l.8.8,2.9,2.9c.2.2.5.2.7,0l.8-.8c.2-.2.2-.5,0-.7l-2.5-2.5Z"/>
    </g>
    <g>
      <path class="cls-1" d="M18,16.7l-.8-.8c-.3-.3-.4-.6-.4-1s.1-.7.4-1l1.9-1.9-1.9-1.9c-.5-.5-.5-1.4,0-1.9l.8-.8c.5-.5,1.4-.5,1.9,0l3.7,3.7c.5.5.5,1.4,0,1.9l-3.7,3.7c-.3.3-.6.4-1,.4s-.7-.1-1-.4ZM18.9,8.8l-.3.3,2.9,2.9-2.9,2.9.3.3,3.2-3.2-3.2-3.2Z"/>
      <path class="cls-2" d="M20.3,12l-2.5-2.5c-.2-.2-.2-.5,0-.7l.8-.8c.2-.2.5-.2.7,0l2.9,2.9.8.8c.2.2.2.5,0,.7l-.8.8-2.9,2.9c-.2.2-.5.2-.7,0l-.8-.8c-.2-.2-.2-.5,0-.7l2.5-2.5Z"/>
    </g>
  </g>
  <g>
    <g>
      <path class="cls-1" d="M6.9,5.1c0-.3.1-.7.4-1L11,.4c.5-.5,1.4-.5,1.9,0l3.7,3.7c.5.5.5,1.4,0,1.9l-.8.8c-.5.5-1.4.5-1.9,0l-1.9-1.9-1.9,1.9c-.3.3-.6.4-1,.4s-.7-.1-1-.4l-.8-.8c-.3-.3-.4-.6-.4-1ZM12,1.9l-3.2,3.2.3.3,2.9-2.9,2.9,2.9.3-.3-3.2-3.2Z"/>
      <path class="cls-2" d="M12,3.7l2.5,2.5c.2.2.5.2.7,0l.8-.8c.2-.2.2-.5,0-.7l-2.9-2.9-.8-.8c-.2-.2-.5-.2-.7,0l-.8.8-2.9,2.9c-.2.2-.2.5,0,.7l.8.8c.2.2.5.2.7,0l2.5-2.5Z"/>
    </g>
    <g>
      <path class="cls-1" d="M7.3,18l.8-.8c.3-.3.6-.4,1-.4s.7.1,1,.4l1.9,1.9,1.9-1.9c.5-.5,1.4-.5,1.9,0l.8.8c.5.5.5,1.4,0,1.9l-3.7,3.7c-.5.5-1.4.5-1.9,0l-3.7-3.7c-.3-.3-.4-.6-.4-1s.1-.7.4-1ZM15.2,18.9l-.3-.3-2.9,2.9-2.9-2.9-.3.3,3.2,3.2,3.2-3.2Z"/>
      <path class="cls-2" d="M12,20.3l2.5-2.5c.2-.2.5-.2.7,0l.8.8c.2.2.2.5,0,.7l-2.9,2.9-.8.8c-.2.2-.5.2-.7,0l-.8-.8-2.9-2.9c-.2-.2-.2-.5,0-.7l.8-.8c.2-.2.5-.2.7,0l2.5,2.5Z"/>
    </g>
  </g>
</svg>