<?xml version="1.0" encoding="UTF-8"?>
<svg width="10.075" height="10.075" data-name="Layer 2" version="1.1" viewBox="0 0 10.075 10.075" xmlns="http://www.w3.org/2000/svg">
 <defs>
  <style>.cls-1 {
        fill: #000;
      }

      .cls-1, .cls-2, .cls-3 {
        stroke-width: 0px;
      }

      .cls-2 {
        fill: #0072ff;
      }

      .cls-3 {
        fill: #fff;
      }</style>
 </defs>
 <g transform="translate(1.425 -7.025)">
  <path class="cls-1" d="m5.1 17.1c-0.3 0-0.7-0.1-1-0.4l-3.7-3.7c-0.5-0.5-0.5-1.4 0-1.9l3.7-3.7c0.5-0.5 1.4-0.5 1.9 0l0.8 0.8c0.5 0.5 0.5 1.4 0 1.9l-1.9 1.9 1.9 1.9c0.3 0.3 0.4 0.6 0.4 1s-0.1 0.7-0.4 1l-0.8 0.8c-0.3 0.3-0.6 0.4-1 0.4zm-3.2-5.1 3.2 3.2 0.3-0.3-2.9-2.9 2.9-2.9-0.3-0.3z"/>
  <path class="cls-2" d="m3.7 12 2.5-2.5c0.2-0.2 0.2-0.5 0-0.7l-0.8-0.8c-0.2-0.2-0.5-0.2-0.7 0l-3.7 3.7c-0.2 0.2-0.2 0.5 0 0.7l3.7 3.7c0.2 0.2 0.5 0.2 0.7 0l0.8-0.8c0.2-0.2 0.2-0.5 0-0.7l-2.5-2.5z"/>
 </g>
</svg>
